<?xml version="1.0" encoding="UTF-8"?>
<svg version="1.1" xmlns="http://www.w3.org/2000/svg" width="155" height="155">
<path d="M0 0 C13.55456865 0.15117284 22.76000573 2.68371561 33.50024414 11.31469727 C32.97409344 15.57548626 30.30950691 18.30415106 27.68774414 21.50219727 C21.08314216 29.90592746 17.72259091 36.20142905 18.12133789 47.22485352 C18.85571972 53.21347233 20.94108939 57.35821371 25.62524414 61.18969727 C30.70895243 64.37649948 36.14645023 65.75519557 42.11743164 64.97094727 C47.9420883 63.48380088 52.72773896 61.07996696 56.50024414 56.31469727 C60.27396361 49.73353943 60.14592482 42.55755177 58.50024414 35.31469727 C55.53076805 27.67437267 50.57713152 21.68688998 45.16040039 15.62719727 C44.33862305 14.48250977 44.33862305 14.48250977 43.50024414 13.31469727 C45.10519732 8.49983774 49.20074097 6.72162772 53.50024414 4.31469727 C60.0935211 1.53914035 66.51918694 0.18178565 73.67602539 0.21704102 C74.83295898 0.22026367 75.98989258 0.22348633 77.18188477 0.22680664 C78.38006836 0.23518555 79.57825195 0.24356445 80.81274414 0.25219727 C82.63902344 0.25896484 82.63902344 0.25896484 84.50219727 0.26586914 C87.5015964 0.27763149 90.50089503 0.294069 93.50024414 0.31469727 C94.67274682 2.65970261 94.6259858 4.03535087 94.62722778 6.64857483 C94.63145752 8.01362404 94.63145752 8.01362404 94.63577271 9.40625 C94.63273636 10.90792725 94.63273636 10.90792725 94.62963867 12.43994141 C94.63226715 14.01804848 94.63226715 14.01804848 94.63494873 15.6280365 C94.63936358 19.11865876 94.63643074 22.6092307 94.63305664 26.09985352 C94.63372973 28.51598622 94.6346998 30.93211887 94.63595581 33.34825134 C94.63743225 38.41658166 94.63527977 43.48489438 94.63061523 48.55322266 C94.62491495 55.06610799 94.62819921 61.57895215 94.6341877 68.09183598 C94.63779218 73.08190728 94.6366553 78.07196874 94.63405991 83.06204033 C94.63339048 85.46433962 94.6342196 87.8666398 94.63653946 90.26893806 C94.63906445 93.61893221 94.63522769 96.96885859 94.62963867 100.31884766 C94.6316629 101.32199005 94.63368713 102.32513245 94.63577271 103.3586731 C94.63295288 104.26588608 94.63013306 105.17309906 94.62722778 106.10780334 C94.62666224 107.29716791 94.62666224 107.29716791 94.62608528 108.51056004 C94.50024414 110.31469727 94.50024414 110.31469727 93.50024414 111.31469727 C92.07310794 111.41239928 90.64116984 111.44101422 89.21069336 111.44168091 C88.28520691 111.44450073 87.35972046 111.44732056 86.40618896 111.45022583 C84.87106659 111.44718948 84.87106659 111.44718948 83.30493164 111.4440918 C82.23349915 111.44584412 81.16206665 111.44759644 80.0581665 111.44940186 C76.49717617 111.4538228 72.93623503 111.45088152 69.37524414 111.44750977 C66.9128417 111.44818273 64.45043932 111.4491527 61.98803711 111.45040894 C56.81957366 111.45188624 51.65112746 111.44973031 46.48266602 111.44506836 C39.84083687 111.43937106 33.19904812 111.44264989 26.55722046 111.44864082 C21.47021172 111.45224556 16.38321264 111.45110825 11.29620361 111.44851303 C8.84645584 111.44784352 6.39670721 111.44867302 3.94696045 111.45099258 C0.52980204 111.45351768 -2.88728993 111.44968052 -6.30444336 111.4440918 C-7.32785828 111.44611603 -8.35127319 111.44814026 -9.40570068 111.45022583 C-10.79393036 111.44599609 -10.79393036 111.44599609 -12.21020508 111.44168091 C-13.01916229 111.44130388 -13.82811951 111.44092686 -14.66159058 111.44053841 C-16.49975586 111.31469727 -16.49975586 111.31469727 -17.49975586 110.31469727 C-17.59741982 108.90023734 -17.62607262 107.4809378 -17.6267395 106.06311035 C-17.62955933 105.14603806 -17.63237915 104.22896576 -17.63528442 103.28410339 C-17.63326019 102.27003922 -17.63123596 101.25597504 -17.62915039 100.21118164 C-17.63090271 99.14950272 -17.63265503 98.08782379 -17.63446045 96.99397278 C-17.63888134 93.46544791 -17.63594014 89.93697269 -17.63256836 86.40844727 C-17.63324133 83.96846507 -17.6342113 81.52848294 -17.63546753 79.08850098 C-17.63694482 73.96711592 -17.63478893 68.84574827 -17.63012695 63.72436523 C-17.62442965 57.14307012 -17.62770849 50.56181578 -17.63369942 43.98052216 C-17.63730418 38.93983653 -17.63616684 33.89916065 -17.63357162 28.85847473 C-17.63290212 26.43105566 -17.63373159 24.00363571 -17.63605118 21.57621765 C-17.63857631 18.19019204 -17.63473908 14.80423348 -17.62915039 11.41821289 C-17.63117462 10.40414871 -17.63319885 9.39008453 -17.63528442 8.34529114 C-17.6324646 7.42821884 -17.62964478 6.51114655 -17.6267395 5.56628418 C-17.62636248 4.76470131 -17.62598545 3.96311844 -17.625597 3.13724518 C-17.24465025 -2.3799783 -4.1255994 0.0024175 0 0 Z " fill="#FDFEFD" transform="translate(40.499755859375,22.685302734375)"/>
<path d="M0 0 C51.15 0 102.3 0 155 0 C155 51.15 155 102.3 155 155 C103.85 155 52.7 155 0 155 C0 103.85 0 52.7 0 0 Z M17 18 C16.69891036 20.20136691 16.69891036 20.20136691 16.75276184 22.78271484 C16.74856735 23.79227234 16.74437286 24.80182983 16.74005127 25.84197998 C16.74567078 26.95373596 16.75129028 28.06549194 16.75708008 29.2109375 C16.75518173 30.37844543 16.75328339 31.54595337 16.75132751 32.74884033 C16.74825169 35.95542814 16.75414286 39.16184708 16.76428056 42.36841583 C16.77305089 45.72005296 16.77130381 49.07169412 16.7709198 52.42333984 C16.77185693 58.05243254 16.78054735 63.68147139 16.79418945 69.31054688 C16.80991549 75.8236775 16.81518758 82.33674914 16.8144539 88.84989738 C16.81384402 95.10870052 16.8189458 101.36748439 16.82724571 107.62628174 C16.83043705 110.2929155 16.83260934 112.95952655 16.83313942 115.62615967 C16.83529806 119.34715774 16.84403205 123.0680805 16.85473633 126.7890625 C16.85428314 127.90081848 16.85382996 129.01257446 16.85336304 130.15802002 C16.85762802 131.16757751 16.86189301 132.17713501 16.86628723 133.21728516 C16.86796308 134.0977652 16.86963892 134.97824524 16.87136555 135.88540649 C16.86472498 138.05618266 16.86472498 138.05618266 18 140 C58.59 140 99.18 140 141 140 C141.020625 119.725625 141.04125 99.45125 141.0625 78.5625 C141.071604 72.15013916 141.08070801 65.73777832 141.09008789 59.13110352 C141.09343139 53.40569332 141.09343139 53.40569332 141.09544373 47.68028259 C141.09698387 45.12114054 141.10014101 42.56204701 141.10557556 40.00291443 C141.11367764 36.13678605 141.11390757 32.27067829 141.11352539 28.40454102 C141.1171235 27.25583055 141.12072161 26.10712008 141.12442875 24.9236002 C141.1223625 23.37237414 141.1223625 23.37237414 141.12025452 21.78981018 C141.12117631 20.88368768 141.1220981 19.97756517 141.12304783 19.04398441 C141.22715834 17.00604565 141.22715834 17.00604565 140 16 C135.75670001 15.74163288 131.50020071 15.81474403 127.25 15.8125 C126.07566406 15.80025391 124.90132813 15.78800781 123.69140625 15.77539062 C112.83196 15.75747075 102.22303842 16.1727201 92.5 21.375 C91.3759375 21.96023437 90.251875 22.54546875 89.09375 23.1484375 C85.95581934 24.89846501 85.95581934 24.89846501 83.40625 27.2890625 C81 29 81 29 78.47265625 28.95703125 C75.69399011 27.88156015 73.77354153 26.5334076 71.4375 24.6875 C58.84955034 15.60552743 44.76647084 15.94516344 29.875 15.8125 C28.84205811 15.79928711 27.80911621 15.78607422 26.74487305 15.77246094 C25.2894812 15.77101074 25.2894812 15.77101074 23.8046875 15.76953125 C22.92796387 15.76542236 22.05124023 15.76131348 21.14794922 15.75708008 C18.7863335 15.79822331 18.7863335 15.79822331 17 18 Z " fill="#FDFEFB" transform="translate(0,0)"/>
<path d="M0 0 C13.55456865 0.15117284 22.76000573 2.68371561 33.50024414 11.31469727 C32.75805664 15.09594727 32.75805664 15.09594727 30.43774414 17.06469727 C29.79836914 17.47719727 29.15899414 17.88969727 28.50024414 18.31469727 C28.83024414 16.99469727 29.16024414 15.67469727 29.50024414 14.31469727 C30.16024414 14.31469727 30.82024414 14.31469727 31.50024414 14.31469727 C31.50024414 13.65469727 31.50024414 12.99469727 31.50024414 12.31469727 C30.81961914 12.06719727 30.13899414 11.81969727 29.43774414 11.56469727 C26.64879478 10.3779103 24.18223735 8.95598256 21.63696289 7.31469727 C10.55155872 2.12664705 -2.96496446 3.75834309 -14.49975586 3.31469727 C-14.49975586 38.29469727 -14.49975586 73.27469727 -14.49975586 109.31469727 C20.48024414 109.31469727 55.46024414 109.31469727 91.50024414 109.31469727 C91.17024414 74.33469727 90.84024414 39.35469727 90.50024414 3.31469727 C67.48583153 3.38572025 67.48583153 3.38572025 53.50024414 7.31469727 C53.50024414 7.97469727 53.50024414 8.63469727 53.50024414 9.31469727 C52.51024414 9.31469727 51.52024414 9.31469727 50.50024414 9.31469727 C49.53223921 12.09771145 49.11369447 13.4460918 49.50024414 16.31469727 C51.26491168 19.07306109 53.24891297 21.4381985 55.42211914 23.88500977 C62.9695275 32.70923533 62.77875459 41.15880663 62.50024414 52.31469727 C61.84024414 52.31469727 61.18024414 52.31469727 60.50024414 52.31469727 C60.41774414 53.01594727 60.33524414 53.71719727 60.25024414 54.43969727 C58.66855921 60.50282284 55.14635161 64.29122063 49.87133789 67.41235352 C45.51596762 69.0698338 41.07949572 68.69349565 36.50024414 68.31469727 C39.15977761 66.87535064 41.47032887 66.03691962 44.43774414 65.50219727 C48.66282333 64.49883894 50.68789738 62.67388923 53.50024414 59.31469727 C54.58305664 58.13907227 54.58305664 58.13907227 55.68774414 56.93969727 C59.7370823 51.07513856 59.91080831 45.31109528 59.15649414 38.42797852 C57.23116022 29.29410271 51.23862825 22.42690583 45.16040039 15.62719727 C44.33862305 14.48250977 44.33862305 14.48250977 43.50024414 13.31469727 C45.10519732 8.49983774 49.20074097 6.72162772 53.50024414 4.31469727 C60.0935211 1.53914035 66.51918694 0.18178565 73.67602539 0.21704102 C74.83295898 0.22026367 75.98989258 0.22348633 77.18188477 0.22680664 C78.38006836 0.23518555 79.57825195 0.24356445 80.81274414 0.25219727 C82.63902344 0.25896484 82.63902344 0.25896484 84.50219727 0.26586914 C87.5015964 0.27763149 90.50089503 0.294069 93.50024414 0.31469727 C94.67274682 2.65970261 94.6259858 4.03535087 94.62722778 6.64857483 C94.63145752 8.01362404 94.63145752 8.01362404 94.63577271 9.40625 C94.63273636 10.90792725 94.63273636 10.90792725 94.62963867 12.43994141 C94.63226715 14.01804848 94.63226715 14.01804848 94.63494873 15.6280365 C94.63936358 19.11865876 94.63643074 22.6092307 94.63305664 26.09985352 C94.63372973 28.51598622 94.6346998 30.93211887 94.63595581 33.34825134 C94.63743225 38.41658166 94.63527977 43.48489438 94.63061523 48.55322266 C94.62491495 55.06610799 94.62819921 61.57895215 94.6341877 68.09183598 C94.63779218 73.08190728 94.6366553 78.07196874 94.63405991 83.06204033 C94.63339048 85.46433962 94.6342196 87.8666398 94.63653946 90.26893806 C94.63906445 93.61893221 94.63522769 96.96885859 94.62963867 100.31884766 C94.6316629 101.32199005 94.63368713 102.32513245 94.63577271 103.3586731 C94.63295288 104.26588608 94.63013306 105.17309906 94.62722778 106.10780334 C94.62666224 107.29716791 94.62666224 107.29716791 94.62608528 108.51056004 C94.50024414 110.31469727 94.50024414 110.31469727 93.50024414 111.31469727 C92.07310794 111.41239928 90.64116984 111.44101422 89.21069336 111.44168091 C88.28520691 111.44450073 87.35972046 111.44732056 86.40618896 111.45022583 C84.87106659 111.44718948 84.87106659 111.44718948 83.30493164 111.4440918 C82.23349915 111.44584412 81.16206665 111.44759644 80.0581665 111.44940186 C76.49717617 111.4538228 72.93623503 111.45088152 69.37524414 111.44750977 C66.9128417 111.44818273 64.45043932 111.4491527 61.98803711 111.45040894 C56.81957366 111.45188624 51.65112746 111.44973031 46.48266602 111.44506836 C39.84083687 111.43937106 33.19904812 111.44264989 26.55722046 111.44864082 C21.47021172 111.45224556 16.38321264 111.45110825 11.29620361 111.44851303 C8.84645584 111.44784352 6.39670721 111.44867302 3.94696045 111.45099258 C0.52980204 111.45351768 -2.88728993 111.44968052 -6.30444336 111.4440918 C-7.32785828 111.44611603 -8.35127319 111.44814026 -9.40570068 111.45022583 C-10.79393036 111.44599609 -10.79393036 111.44599609 -12.21020508 111.44168091 C-13.01916229 111.44130388 -13.82811951 111.44092686 -14.66159058 111.44053841 C-16.49975586 111.31469727 -16.49975586 111.31469727 -17.49975586 110.31469727 C-17.59741982 108.90023734 -17.62607262 107.4809378 -17.6267395 106.06311035 C-17.62955933 105.14603806 -17.63237915 104.22896576 -17.63528442 103.28410339 C-17.63326019 102.27003922 -17.63123596 101.25597504 -17.62915039 100.21118164 C-17.63090271 99.14950272 -17.63265503 98.08782379 -17.63446045 96.99397278 C-17.63888134 93.46544791 -17.63594014 89.93697269 -17.63256836 86.40844727 C-17.63324133 83.96846507 -17.6342113 81.52848294 -17.63546753 79.08850098 C-17.63694482 73.96711592 -17.63478893 68.84574827 -17.63012695 63.72436523 C-17.62442965 57.14307012 -17.62770849 50.56181578 -17.63369942 43.98052216 C-17.63730418 38.93983653 -17.63616684 33.89916065 -17.63357162 28.85847473 C-17.63290212 26.43105566 -17.63373159 24.00363571 -17.63605118 21.57621765 C-17.63857631 18.19019204 -17.63473908 14.80423348 -17.62915039 11.41821289 C-17.63117462 10.40414871 -17.63319885 9.39008453 -17.63528442 8.34529114 C-17.6324646 7.42821884 -17.62964478 6.51114655 -17.6267395 5.56628418 C-17.62636248 4.76470131 -17.62598545 3.96311844 -17.625597 3.13724518 C-17.24465025 -2.3799783 -4.1255994 0.0024175 0 0 Z " fill="#FCF8ED" transform="translate(40.499755859375,22.685302734375)"/>
<path d="M0 0 C1.42338715 0.05749494 2.84628556 0.12795307 4.26855469 0.20849609 C5.03157898 0.24623138 5.79460327 0.28396667 6.58074951 0.32284546 C8.20516262 0.40677133 9.82929609 0.49626257 11.453125 0.59082031 C13.88845873 0.7289851 16.32389717 0.83907971 18.76074219 0.94677734 C30.59950174 1.54913433 43.45846161 2.32165575 52.75292969 10.48193359 C55.15508587 12.71385013 55.15508587 12.71385013 57.69042969 14.10693359 C61.14103066 13.3009538 62.44166413 12.38496569 64.81542969 9.73193359 C72.19400108 2.99497711 82.67969803 1.94608716 92.27246094 2.00927734 C93.49372932 2.01139977 93.49372932 2.01139977 94.7396698 2.01356506 C97.32746125 2.01914043 99.91516461 2.03168835 102.50292969 2.04443359 C104.26269406 2.04945178 106.02245979 2.05401413 107.78222656 2.05810547 C112.08499462 2.06910179 116.38769724 2.08634939 120.69042969 2.10693359 C120.69042969 2.43693359 120.69042969 2.76693359 120.69042969 3.10693359 C119.91030518 3.12675293 119.13018066 3.14657227 118.32641602 3.16699219 C114.71830499 3.26350709 111.11067609 3.37266313 107.50292969 3.48193359 C105.66311523 3.52833984 105.66311523 3.52833984 103.78613281 3.57568359 C87.42217006 4.07776047 87.42217006 4.07776047 72.19042969 9.48193359 C71.06636719 10.06716797 69.94230469 10.65240234 68.78417969 11.25537109 C65.64624903 13.0053986 65.64624903 13.0053986 63.09667969 15.39599609 C60.69042969 17.10693359 60.69042969 17.10693359 58.16308594 17.06396484 C55.3844198 15.98849375 53.46397122 14.6403412 51.12792969 12.79443359 C38.50800596 3.68939233 24.42805379 4.05041317 9.50292969 3.98193359 C8.46160889 3.97709961 7.42028809 3.97226562 6.34741211 3.96728516 C5.37392822 3.96954102 4.40044434 3.97179687 3.39746094 3.97412109 C2.51550049 3.97524902 1.63354004 3.97637695 0.72485352 3.97753906 C-1.30455367 3.88165102 -1.30455367 3.88165102 -2.30957031 5.10693359 C-2.40551257 6.68848207 -2.43144991 8.27432484 -2.42982483 9.85877991 C-2.43120233 10.88453408 -2.43257982 11.91028826 -2.43399906 12.96712589 C-2.43040095 14.106468 -2.42680285 15.24581011 -2.4230957 16.41967773 C-2.42327651 18.23378851 -2.42327651 18.23378851 -2.42346096 20.084548 C-2.42271135 24.02041364 -2.41508093 27.95623261 -2.40722656 31.89208984 C-2.40575729 34.3135984 -2.40473649 36.73510727 -2.4041748 39.15661621 C-2.39892019 48.1608935 -2.38495914 57.165164 -2.37207031 66.16943359 C-2.35144531 86.27880859 -2.33082031 106.38818359 -2.30957031 127.10693359 C38.28042969 127.10693359 78.87042969 127.10693359 120.69042969 127.10693359 C120.69042969 86.51693359 120.69042969 45.92693359 120.69042969 4.10693359 C121.35042969 4.10693359 122.01042969 4.10693359 122.69042969 4.10693359 C122.69042969 45.35693359 122.69042969 86.60693359 122.69042969 129.10693359 C90.88237946 129.14723663 90.88237946 129.14723663 77.59472656 129.15576172 C68.40518641 129.16170473 59.21565539 129.16870646 50.02612305 129.18237305 C43.33464979 129.19231983 36.64318393 129.19878701 29.95170349 129.20102209 C26.40647368 129.20232921 22.861265 129.20541512 19.31604195 129.21266365 C15.36474324 129.2206774 11.41346549 129.22092474 7.4621582 129.22045898 C6.27820969 129.22405426 5.09426117 129.22764954 3.87443542 129.23135376 C2.8044632 129.2299791 1.73449097 129.22860443 0.63209534 129.22718811 C-0.77133448 129.2285708 -0.77133448 129.2285708 -2.20311642 129.22998142 C-4.30957031 129.10693359 -4.30957031 129.10693359 -5.30957031 128.10693359 C-5.40997314 126.47933706 -5.44033079 124.8473778 -5.44328308 123.21669006 C-5.44754807 122.15802231 -5.45181305 121.09935455 -5.45620728 120.00860596 C-5.4555275 118.25142242 -5.4555275 118.25142242 -5.45483398 116.45874023 C-5.4581926 115.2328569 -5.46155121 114.00697357 -5.4650116 112.74394226 C-5.47290749 109.37205505 -5.47619054 106.00022939 -5.47682738 102.62833714 C-5.47777486 99.81756649 -5.48145131 97.00680179 -5.48499948 94.19603342 C-5.49315165 87.56680243 -5.49558302 80.93758503 -5.49487305 74.30834961 C-5.49427207 67.46064682 -5.50482606 60.61302277 -5.52061671 53.76533991 C-5.53367457 47.89442035 -5.53905768 42.02352658 -5.53841764 36.1525926 C-5.53816213 32.64253853 -5.54104229 29.13255438 -5.55159569 25.62251472 C-5.56303782 21.70981875 -5.55854063 17.7972315 -5.55249023 13.88452148 C-5.55810974 12.71509003 -5.56372925 11.54565857 -5.56951904 10.34078979 C-5.56532455 9.27930222 -5.56113007 8.21781464 -5.55680847 7.12416077 C-5.55735324 6.19813584 -5.55789801 5.27211092 -5.55845928 4.31802464 C-5.12134262 0.43474794 -3.73595013 0.1207101 0 0 Z " fill="#FDF7EC" transform="translate(20.3095703125,12.89306640625)"/>
<path d="M0 0 C7.05730087 2.24606271 10.72385872 8.19586415 14.40234375 14.34375 C16.9465901 19.48656825 18.02161196 24.29773735 17 30 C15.63878226 33.87717637 13.4433389 36.56774457 10.5 39.4375 C5.28310972 41.76646887 0.60801083 42.09370892 -5 41 C-9.41907912 38.57506508 -12.17107787 35.52521673 -14.5625 31.125 C-15.91329586 21.47645816 -12.54187456 14.86096941 -7 7 C-4.80826552 4.48183698 -2.5263087 2.18076496 0 0 Z " fill="#FDFEFC" transform="translate(78,41)"/>
<path d="M0 0 C0.66 0 1.32 0 2 0 C2 41.25 2 82.5 2 125 C-39.91 125 -81.82 125 -125 125 C-124.67 124.01 -124.34 123.02 -124 122 C-83.08 122.33 -42.16 122.66 0 123 C0 82.41 0 41.82 0 0 Z " fill="#F7F1E6" transform="translate(141,17)"/>
<path d="M0 0 C7.05730087 2.24606271 10.72385872 8.19586415 14.40234375 14.34375 C16.9465901 19.48656825 18.02161196 24.29773735 17 30 C15.63878226 33.87717637 13.4433389 36.56774457 10.5 39.4375 C5.33697525 41.74242177 0.56154951 41.90413168 -5 41 C-7.76402435 39.61286926 -8.94235961 38.40058045 -11 36 C-11 35.34 -11 34.68 -11 34 C-10.34 34 -9.68 34 -9 34 C-9 34.66 -9 35.32 -9 36 C-4.42713365 38.64467616 -0.16076495 38.53724051 5 38 C9.11275909 36.45771534 10.55780938 35.66328593 13 32 C14.17679215 23.93218457 13.2836686 17.83324827 8.66796875 11.1015625 C6.59555119 8.49041344 4.49963475 6.20556007 2 4 C-1.12197478 5.3089572 -1.12197478 5.3089572 -3 8 C-3.66 8 -4.32 8 -5 8 C-5.2475 8.680625 -5.495 9.36125 -5.75 10.0625 C-7 13 -7 13 -9.0625 16.125 C-11.81322727 20.73681413 -11.80997865 25.7459098 -12 31 C-13.4921875 29.74609375 -13.4921875 29.74609375 -15 28 C-15.28950074 18.88072679 -10.87271344 11.44950055 -4.98046875 4.6796875 C-3.36559505 3.05494695 -1.73356602 1.49645213 0 0 Z " fill="#FAF4EA" transform="translate(78,41)"/>
<path d="M0 0 C0.33 0.99 0.66 1.98 1 3 C-0.109375 5.015625 -0.109375 5.015625 -1.75 7.25 C-7.40690412 15.45908877 -9.08459512 22.02911988 -8 32 C-6.47528695 37.67229556 -3.52825813 40.90682372 1.31640625 44.08984375 C3.16102554 45.14977253 3.16102554 45.14977253 6 46 C6 46.66 6 47.32 6 48 C6.66 48.33 7.32 48.66 8 49 C1.01655649 48.65082782 -3.58160577 44.62029284 -8.15234375 39.66796875 C-12.131126 33.92270813 -12.30510062 26.89409734 -11.58984375 20.109375 C-10.30024577 13.25970706 -10.30024577 13.25970706 -9 10 C-6.9296875 8.73828125 -6.9296875 8.73828125 -5 8 C-4.19471111 5.94999129 -4.19471111 5.94999129 -4 4 C-3.34 4 -2.68 4 -2 4 C-1.34 2.68 -0.68 1.36 0 0 Z " fill="#FAF5EA" transform="translate(67,41)"/>
<path d="M0 0 C5.68046944 0.94055703 9.72424312 1.86217076 14 6 C13.60196439 8.88575819 13.20990931 9.82189513 10.9375 11.75 C10.298125 12.1625 9.65875 12.575 9 13 C9.33 11.68 9.66 10.36 10 9 C10.66 9 11.32 9 12 9 C12 8.34 12 7.68 12 7 C11.319375 6.7525 10.63875 6.505 9.9375 6.25 C6.43134917 4.75802092 3.28379632 2.93164489 0 1 C0 0.67 0 0.34 0 0 Z " fill="#F9F3E6" transform="translate(60,28)"/>
<path d="M0 0 C0.33 0 0.66 0 1 0 C1.33 2.64 1.66 5.28 2 8 C1.01 8 0.02 8 -1 8 C-1.93065133 5.39417629 -2.14917407 4.35801776 -1.0625 1.75 C-0.711875 1.1725 -0.36125 0.595 0 0 Z " fill="#FCF9EF" transform="translate(66,67)"/>
<path d="M0 0 C-1.32 0.33 -2.64 0.66 -4 1 C-4 1.66 -4 2.32 -4 3 C-5.65 3.33 -7.3 3.66 -9 4 C-8.25 2.0625 -8.25 2.0625 -7 0 C-4.04680182 -1.23843794 -3.12561472 -1.04187157 0 0 Z " fill="#FDF6E7" transform="translate(98,29)"/>
</svg>
